<?xml version="1.0" encoding="utf-8"?>
<!-- Generator: Adobe Illustrator 26.0.3, SVG Export Plug-In . SVG Version: 6.00 Build 0)  -->
<svg version="1.1" id="Layer_1" xmlns="http://www.w3.org/2000/svg" xmlns:xlink="http://www.w3.org/1999/xlink" x="0px" y="0px"
	 viewBox="0 0 356 98" style="enable-background:new 0 0 356 98;" xml:space="preserve">
<style type="text/css">
	.st0{fill:#0000FF;}
	.st1{fill:#FF0000;}
</style>
<g>
	<g>
		<g>
			<path class="st0" d="M28.5,51.4c0.8,1.1,1.8,1.7,2.4,2c-0.3,0.4-2.2,3.3-1.2,6.7c0.9,3.2,3.9,5.6,7.1,5.7
				c4.6,0.1,7.1-4.8,7.5-5.7c0.4-0.8,0.7-1.6,0.9-2.4c0.1,1.6,0.1,3.2,0.2,4.8c0.1,0.4,0.2,0.8,0.5,1.4c0.2,0.4,0.4,0.7,0.6,0.9
				c0.2-0.3,0.4-0.6,0.6-0.9c0.2-0.6,0.3-1.1,0.5-1.7c0-1.2,0.1-2.4,0.1-3.6c0.2,0.5,0.4,1.1,0.6,1.6c0.4,0.9,2.9,5.8,7.5,5.7
				c3.2-0.1,6.2-2.5,7.1-5.7c1-3.4-0.9-6.3-1.2-6.7c0.6-0.4,1.6-1,2.4-2c1.9-2.4,1.1-4.2,2.6-7.5c1.5-3.2,3.3-3.5,3.1-5.3
				c-0.2-1.8-2-3.1-3.5-3.7c-1.7-0.7-3.3-0.3-3.9-0.1c-2.4,1.1-11.6,5.5-14.5,15c-0.1,0.2-0.2,0.5-0.2,0.8c0-1.4,0.1-2.7,0.1-4.1
				c0-0.6-0.3-1-0.8-1.3c0.7-0.5,1.1-1.5,0.8-1.8c-0.2-0.2-0.7-0.1-1.3,0.1c1.9-4.9,3.3-8.5,4.1-10.2c0.2-0.4,0.6-1.4,1.4-1.7
				c0.4-0.2,0.9-0.2,1.4,0c0.1,0,0.3,0,0.3-0.2c0-0.1,0-0.3-0.2-0.3c-0.6-0.2-1.2-0.2-1.8,0c-1.1,0.4-1.5,1.5-1.8,2
				c-0.7,1.7-2.2,5.2-4,10c-1.8-4.8-3.3-8.4-4-10c-0.2-0.5-0.7-1.6-1.8-2c-0.5-0.2-1.1-0.2-1.8,0c-0.1,0-0.2,0.2-0.2,0.3
				c0,0.1,0.2,0.2,0.3,0.2c0.5-0.2,1-0.2,1.4,0c0.8,0.3,1.2,1.2,1.4,1.7c0.7,1.7,2.2,5.3,4.1,10.2c-0.8-0.3-1.2-0.2-1.3-0.1
				c-0.2,0.3,0.3,1.4,1,1.8c-0.4,0.3-0.7,0.7-0.7,1.2c0.1,1.6,0.1,3.2,0.2,4.8c-0.1-0.6-0.3-1.1-0.4-1.6c-2.8-9.4-12-13.9-14.5-15
				c-0.6-0.2-2.1-0.6-3.9,0.1c-1.5,0.5-3.3,1.9-3.5,3.7c-0.2,1.8,1.6,2.2,3.1,5.3C27.4,47.2,26.5,49,28.5,51.4z M55.8,62.3
				c-0.4,0.3-1.9-1.3-2.7-2.1c-1.4-1.6-2.1-3.2-2.4-4.3c0.5,0.2,1.3,0.6,2,1.2C55.1,59,56.2,62,55.8,62.3z M53.4,56.1
				C51.7,54.6,50,54.2,50,54c0.1-0.2,1.2,0.1,2.2,0.4c1.9,0.6,1.8,1.1,3.3,1.6c1.3,0.4,1.8,0.2,2.6,0.8c0.1,0.1,1,0.8,0.8,1.4
				c-0.2,0.7-1.8,1-3,0.6C54.8,58.3,54.8,57.4,53.4,56.1z M54.7,54.8c0.4-0.2,1.9-0.8,3.7-0.2c1,0.3,2.1,1.1,2,1.3
				C60.3,56.1,59.1,56.1,54.7,54.8z M57.4,64c-0.5,0.2-0.9,0.2-1.1,0.2c-0.4-0.9,0.1-1.7,0.7-1.9c0.4-0.1,1,0.2,1.3,0.8
				C58.2,63.3,57.9,63.7,57.4,64z M59.4,62.3c-0.4-0.1-1.1-0.4-1.8-1c-0.7-0.6-1-1.3-1.1-1.7c2.1-0.1,3.5,0.7,3.6,1.4
				C60.1,61.2,60.1,61.7,59.4,62.3z M61.3,58.5c-0.1,0.4-0.3,0.6-0.4,0.8c-0.4-0.1-0.7-0.1-1.1-0.2c0-0.2,0.1-0.4,0.1-0.8
				c0-0.5-0.1-0.6,0-0.9c0.1-0.2,0.3-0.5,0.9-0.8C60.8,56.7,61.5,57.6,61.3,58.5z M62.4,50.5c-0.9,1.2-2.1,1.6-2.6,1.8
				c-3.3,0-6.7,0-10,0c2.1-2.2,4.1-2.9,5.3-3.2c1-0.2,0.9,0,3.2-0.3c3.1-0.4,4.3-0.9,4.7-0.3C63.5,49,62.6,50.3,62.4,50.5z
				 M66.7,36.9c0.8,0,1.5,0.7,1.5,1.5c0,0.8-0.7,1.5-1.5,1.5s-1.5-0.7-1.5-1.5C65.3,37.6,65.9,36.9,66.7,36.9z M65.3,40.9
				c0.4,0,0.7,0.3,0.7,0.7c0,0.4-0.3,0.7-0.7,0.7s-0.7-0.3-0.7-0.7C64.6,41.3,64.9,40.9,65.3,40.9z M63.9,35.9
				c0.4,0,0.7,0.3,0.7,0.7c0,0.4-0.3,0.7-0.7,0.7c-0.4,0-0.7-0.3-0.7-0.7C63.2,36.3,63.5,35.9,63.9,35.9z M63.6,38.7
				c0.2,0,0.4,0.2,0.4,0.4c0,0.2-0.2,0.4-0.4,0.4s-0.4-0.2-0.4-0.4C63.2,38.9,63.4,38.7,63.6,38.7z M63.7,44.7
				c0.4,0.4,0.4,1.3,0,1.8c-0.4,0.4-1,0.6-1.7,0.4c-0.9,0.1-1.8,0.1-2.7,0.2c-1.9,0.2-3.7,0.5-5.3,0.8c1.9-1.4,3.6-2.2,4.8-2.7
				C60.3,44.7,62.9,43.7,63.7,44.7z M61,36.7c0.3,0,0.5,0.2,0.5,0.5c0,0.3-0.2,0.5-0.5,0.5c-0.3,0-0.5-0.2-0.5-0.5
				C60.5,36.9,60.7,36.7,61,36.7z M62.2,40.9c0.4,0.4,0.2,1.5-0.7,2.1c-1.1,0.3-2.1,0.5-3.2,0.8c0.6-0.9,1.2-1.8,1.8-2.7
				C60.8,40.4,61.8,40.5,62.2,40.9z M53.9,43.4c1.6-1.6,4-3.4,4.4-3c0.3,0.3-0.5,1.9-1,2.6c-1.1,1.8-2.4,2.5-3.7,3.6
				c-1.1,0.9-2.5,2.2-4,4.2C50.9,47.1,52.6,44.8,53.9,43.4z M49.6,55.3c0.2,1.5,0.6,3.4,1.9,5.2c1.5,2.1,3.4,3,3.3,3.1
				c-0.1,0.2-3.4-0.6-4.9-3.6C48.9,57.9,49.4,55.8,49.6,55.3z M29.9,50.5c-0.2-0.3-1.1-1.5-0.7-2.1c0.4-0.6,1.6-0.1,4.7,0.3
				c2.3,0.3,2.3,0.1,3.2,0.3c1.3,0.3,3.2,1,5.3,3.2c-3.3,0-6.7,0-10,0C32,52.2,30.8,51.7,29.9,50.5z M37.6,54.7
				c-4.4,1.3-5.6,1.4-5.7,1.1c-0.1-0.3,1-1,2-1.3C35.7,53.9,37.2,54.6,37.6,54.7z M31.5,59.3c-0.1-0.2-0.3-0.4-0.4-0.8
				c-0.3-1,0.5-1.8,0.6-1.9c0.6,0.3,0.8,0.6,0.9,0.8c0.1,0.2,0,0.4,0,0.9c0,0.3,0.1,0.6,0.1,0.8C32.2,59.1,31.8,59.2,31.5,59.3z
				 M32.3,61.1c0.1-0.8,1.5-1.5,3.6-1.4c-0.1,0.4-0.4,1-1.1,1.7c-0.7,0.6-1.4,0.9-1.8,1C32.2,61.7,32.2,61.2,32.3,61.1z M36,64.2
				c-0.2,0-0.6,0-1.1-0.2c-0.5-0.3-0.8-0.7-0.9-0.9c0.3-0.6,0.9-0.9,1.3-0.8C35.9,62.4,36.4,63.3,36,64.2z M33.4,58.2
				c-0.2-0.6,0.7-1.4,0.8-1.4c0.7-0.6,1.3-0.4,2.6-0.8c1.5-0.4,1.5-0.9,3.3-1.6c1-0.3,2.2-0.6,2.2-0.4c0.1,0.2-1.7,0.6-3.3,2.1
				c-1.4,1.3-1.4,2.2-2.6,2.7C35.2,59.2,33.6,58.9,33.4,58.2z M36.5,62.3c-0.4-0.3,0.7-3.3,3.1-5.2c0.7-0.6,1.5-1,2-1.2
				c-0.4,1.1-1,2.7-2.4,4.3C38.4,61,36.8,62.6,36.5,62.3z M42.4,60.1c-1.5,3-4.8,3.7-4.9,3.6c-0.1-0.1,1.8-1,3.3-3.1
				c1.3-1.8,1.7-3.8,1.9-5.2C42.9,55.8,43.4,57.9,42.4,60.1z M33.9,40.4c0.5-0.4,2.9,1.4,4.4,3c1.3,1.3,3.1,3.6,4.2,7.3
				c-1.5-2-2.9-3.4-4-4.2c-1.2-1-2.5-1.8-3.7-3.6C34.5,42.3,33.6,40.7,33.9,40.4z M31.4,36.8c0.3,0,0.5,0.2,0.5,0.5
				c0,0.3-0.2,0.5-0.5,0.5c-0.3,0-0.5-0.2-0.5-0.5C30.9,37,31.1,36.8,31.4,36.8z M30.1,40.9c0.4-0.4,1.4-0.5,2.1,0.2
				c0.6,0.9,1.2,1.8,1.8,2.7c-1.1-0.3-2.1-0.5-3.2-0.8C29.9,42.4,29.8,41.3,30.1,40.9z M33.5,45.2c1.2,0.4,2.9,1.2,4.8,2.7
				c-1.7-0.3-3.4-0.6-5.3-0.8c-0.9-0.1-1.8-0.2-2.7-0.2c-0.7,0.2-1.3,0-1.7-0.4c-0.4-0.5-0.4-1.4,0-1.8C29.4,43.7,32,44.6,33.5,45.2
				z M28.4,39.2c0-0.2,0.2-0.4,0.4-0.4c0.2,0,0.4,0.2,0.4,0.4c0,0.2-0.2,0.4-0.4,0.4C28.6,39.5,28.4,39.4,28.4,39.2z M28.4,36.1
				c0.4,0,0.7,0.3,0.7,0.7c0,0.4-0.3,0.7-0.7,0.7c-0.4,0-0.7-0.3-0.7-0.7S28,36.1,28.4,36.1z M27.8,41.8c0,0.4-0.3,0.7-0.7,0.7
				c-0.4,0-0.7-0.3-0.7-0.7c0-0.4,0.3-0.7,0.7-0.7C27.5,41,27.8,41.4,27.8,41.8z M24.2,38.5c0-0.8,0.7-1.5,1.5-1.5
				c0.8,0,1.5,0.7,1.5,1.5s-0.7,1.5-1.5,1.5C24.8,39.9,24.2,39.3,24.2,38.5z"/>
		</g>
	</g>
	<path class="st1" d="M51.7,16.2c-10.9,0-20.5,5.7-25.9,14.3c5.1-6.5,13-10.6,21.9-10.6c15.4,0,27.8,12.5,27.8,27.8
		C75.5,63,63,75.5,47.7,75.5c-5.2,0-10.1-1.4-14.3-4c5.1,3.8,11.5,6.1,18.3,6.1c16.9,0,30.7-13.7,30.7-30.7S68.7,16.2,51.7,16.2z"/>
	<path class="st0" d="M49.6,81c-18.7,0-33.8-15-33.8-33.6s15.2-33.6,33.8-33.6c8.4,0,16.1,3.1,22,8.1c-6.7-6.8-16.1-11-26.5-11
		C24.6,11,8,27.5,8,47.9c0,20.4,16.7,36.9,37.2,36.9c13.2,0,24.8-6.8,31.4-17.1C70.4,75.8,60.6,81,49.6,81z"/>
	<g>
		<path class="st0" d="M93,63.2c0.3-2.6,0.5-5,0.7-7.1s0.3-4.6,0.4-7.3c0.1-2.8,0.2-5.7,0.3-8.8c0.1-3.1,0.1-5.6,0.1-7.4
			c1.9,0,3.4,0.1,4.5,0.1c1.2,0,2.7,0,4.4-0.1c1.7-0.1,3.4-0.1,5-0.1c1.9,0,3.6,0.1,5.1,0.2c1.1,0.1,2.1,0.3,3.1,0.7
			s1.7,0.7,2.3,1.2c0.6,0.5,1.2,1,1.6,1.6s0.7,1.3,1,2.1c0.2,0.8,0.3,1.6,0.3,2.5c0,1-0.1,1.9-0.4,2.8c-0.3,0.9-0.7,1.7-1.2,2.5
			c-0.5,0.8-1.2,1.4-2.1,2c-0.8,0.6-2,1.1-3.5,1.7l1.2,2.9c0.3,0.8,0.7,1.6,1.1,2.4l3,6.6c0.1,0.3,0.4,0.8,0.7,1.7c-2.5,0-4.1,0-5,0
			c-1.1,0-2.8,0-5.3,0c-0.2-0.8-0.7-2.2-1.3-4.3c-0.3-0.9-0.5-1.6-0.7-2c-0.4-1.1-0.9-2.6-1.6-4.5l-2.3-6.4c0.8,0.1,1.6,0.2,2.4,0.2
			c1.1,0,2.1-0.2,3-0.5s1.6-0.8,2-1.5c0.5-0.7,0.7-1.4,0.7-2.2c0-0.6-0.2-1.2-0.5-1.7c-0.3-0.5-0.9-0.8-1.6-1.1s-1.9-0.4-3.4-0.4
			c-0.5,0-1.1,0-1.6,0c-0.6,0-1.2,0-2,0.1c-0.2,3.1-0.4,6.8-0.5,11.2c-0.1,4.4-0.2,8.8-0.3,13c-2.5,0-4.1,0-4.9,0
			C96.9,63.2,95.3,63.2,93,63.2z"/>
		<path class="st0" d="M147.3,56.4c-0.2,0.9-0.6,3.1-1.1,6.5c-1.7,0.3-3.2,0.6-4.4,0.7c-1.2,0.1-2.4,0.2-3.6,0.2
			c-1.8,0-3.4-0.1-4.9-0.4c-1.5-0.2-2.8-0.7-3.9-1.3c-1.1-0.6-2-1.4-2.7-2.3c-0.7-0.9-1.3-2-1.7-3.3c-0.4-1.3-0.6-2.6-0.6-4
			c0-1.9,0.4-3.8,1.1-5.6c0.8-1.8,1.7-3.3,3-4.3c1.2-1,2.6-1.8,4.2-2.2c1.6-0.4,3.2-0.7,4.8-0.7c1.7,0,3.3,0.2,4.9,0.6
			c1.5,0.4,2.9,1.1,3.9,2.1s1.8,2.1,2.3,3.3c0.5,1.2,0.7,2.6,0.7,4c0,0.9-0.1,1.8-0.3,2.9l-15.7,0c0,0.2,0,0.5,0,0.6
			c0,1.6,0.6,2.8,1.7,3.6c1.2,0.8,2.6,1.1,4.2,1.1c1,0,2.1-0.1,3.4-0.3C143.9,57.4,145.4,57,147.3,56.4z M133.5,49.2h7.4
			c0-0.3,0-0.5,0-0.7c0-0.8-0.1-1.4-0.4-2c-0.3-0.6-0.7-1-1.2-1.2s-1.1-0.4-1.7-0.4c-0.4,0-0.9,0.1-1.3,0.2
			c-0.4,0.1-0.8,0.4-1.1,0.6c-0.3,0.3-0.6,0.6-0.8,1s-0.4,0.7-0.5,1C133.7,48.1,133.6,48.6,133.5,49.2z"/>
		<path class="st0" d="M174.5,56.4c-0.2,0.9-0.6,3.1-1.1,6.5c-1.7,0.3-3.2,0.6-4.4,0.7c-1.2,0.1-2.4,0.2-3.6,0.2
			c-1.8,0-3.4-0.1-4.9-0.4c-1.5-0.2-2.8-0.7-3.9-1.3c-1.1-0.6-2-1.4-2.7-2.3c-0.7-0.9-1.3-2-1.7-3.3c-0.4-1.3-0.6-2.6-0.6-4
			c0-1.9,0.4-3.8,1.1-5.6c0.8-1.8,1.7-3.3,3-4.3c1.2-1,2.6-1.8,4.2-2.2c1.6-0.4,3.2-0.7,4.8-0.7c1.7,0,3.3,0.2,4.9,0.6
			c1.5,0.4,2.9,1.1,3.9,2.1s1.8,2.1,2.3,3.3c0.5,1.2,0.7,2.6,0.7,4c0,0.9-0.1,1.8-0.3,2.9l-15.7,0c0,0.2,0,0.5,0,0.6
			c0,1.6,0.6,2.8,1.7,3.6c1.2,0.8,2.6,1.1,4.2,1.1c1,0,2.1-0.1,3.4-0.3C171.1,57.4,172.7,57,174.5,56.4z M160.7,49.2h7.4
			c0-0.3,0-0.5,0-0.7c0-0.8-0.1-1.4-0.4-2c-0.3-0.6-0.7-1-1.2-1.2s-1.1-0.4-1.7-0.4c-0.4,0-0.9,0.1-1.3,0.2
			c-0.4,0.1-0.8,0.4-1.1,0.6c-0.3,0.3-0.6,0.6-0.8,1s-0.4,0.7-0.5,1C160.9,48.1,160.8,48.6,160.7,49.2z"/>
		<path class="st0" d="M179.3,63.2c0.4-3.4,0.8-7.2,1-11.3c0.2-4.1,0.4-8,0.4-11.7c1.8,0,3.4,0,4.7,0c1.5,0,3,0,4.4,0l-0.2,3.1
			c0.5-0.6,0.9-1,1.3-1.3c0.4-0.3,0.8-0.6,1.3-0.9c0.5-0.3,1.1-0.6,1.7-0.8s1.3-0.3,2-0.5c0.7-0.1,1.5-0.2,2.2-0.2
			c1.1,0,2.1,0.1,3.2,0.3c1,0.2,1.9,0.6,2.6,1c0.7,0.4,1.3,1,1.7,1.6c0.5,0.6,0.8,1.3,0.9,2.1c0.1,0.7,0.2,1.5,0.2,2.3
			c0,0.6-0.1,1.8-0.2,3.7l-0.4,8.1c-0.1,1.6-0.1,3.1-0.1,4.4c-1.5,0-2.9,0-4.2,0c-1.8,0-3.4,0-4.9,0c0.1-1.4,0.3-3.4,0.4-6.1
			c0.2-2.7,0.2-4.6,0.2-5.7c0-1.7-0.3-2.9-1-3.5c-0.7-0.7-1.5-1-2.5-1c-0.9,0-1.7,0.3-2.5,0.9c-0.8,0.6-1.4,1.4-1.8,2.5
			c-0.4,1.1-0.7,2.9-0.9,5.4s-0.3,5-0.3,7.6c-1.5,0-3,0-4.4,0C182.7,63.2,181,63.2,179.3,63.2z"/>
		<path class="st0" d="M216.9,63.2l-2.4-7.4l-5.4-15.6c1.7,0,3.3,0,4.8,0c1.5,0,3,0,4.3,0c0.3,1,0.8,2.8,1.5,5.4
			c0.8,2.6,1.6,5.7,2.5,9.2l0.6-1.9c0.1-0.2,0.4-1.2,1.1-2.9l3.6-9.9c1.6,0,3.1,0,4.6,0c1.5,0,3,0,4.6,0l-3.1,6.7l-5.8,13.3l-1.2,3
			c-1.8,0-3.3,0-4.7,0C220.4,63.2,218.8,63.2,216.9,63.2z"/>
		<path class="st0" d="M237.7,63.2c0.2-1.8,0.4-3.3,0.5-4.5s0.2-2.7,0.3-4.5s0.2-3.9,0.3-6.1s0.1-4.8,0.2-7.8c1.9,0,3.5,0,4.7,0
			c1.1,0,2.6,0,4.6,0c-0.3,2.8-0.4,5.3-0.6,7.5s-0.2,4.4-0.2,6.8c-0.1,4.3-0.1,7.1-0.1,8.7c-1.8,0-3.3,0-4.6,0
			C241.5,63.2,239.8,63.2,237.7,63.2z M239.2,37.4c0.1-1.8,0.1-3.2,0.1-4.2c0-0.3,0-0.7,0-1.2c1.8,0,3.3,0,4.6,0c1.7,0,3.2,0,4.4,0
			c0,0.5-0.1,0.9-0.1,1.2l-0.1,2.8c0,0.4,0,0.9,0,1.5c-1.5,0-2.9,0-4.3,0C242.3,37.4,240.8,37.4,239.2,37.4z"/>
		<path class="st0" d="M252,62.8c-0.1-0.7-0.1-1.4-0.2-2.1c-0.1-0.7-0.2-1.7-0.3-3l-0.2-1.6c1.4,0.6,2.7,1,3.7,1.3
			c1,0.3,2,0.4,2.9,0.4c0.7,0,1.3-0.1,1.8-0.2c0.5-0.1,0.8-0.3,1-0.6s0.3-0.5,0.3-0.8c0-0.2-0.1-0.5-0.2-0.7c-0.2-0.2-0.5-0.6-1.1-1
			c-1.2-0.9-2.3-1.7-3.2-2.4c-0.9-0.7-1.6-1.4-2.1-2c-0.5-0.6-0.8-1.2-1.1-1.8c-0.2-0.7-0.4-1.3-0.4-2c0-1.2,0.4-2.4,1.1-3.5
			c0.7-1.1,1.8-1.9,3.1-2.3c1.4-0.5,3.1-0.7,5.1-0.7c2.1,0,4.7,0.3,8,0.8l0.4,6.3c-1.8-0.7-3.6-1.1-5.2-1.1c-1.2,0-2,0.1-2.6,0.4
			c-0.5,0.2-0.8,0.6-0.8,1.1c0,0.2,0,0.3,0.1,0.5s0.2,0.3,0.3,0.5c0.2,0.2,0.4,0.3,0.6,0.5c0.2,0.2,0.8,0.6,1.7,1.2s1.6,1.1,2.1,1.5
			c0.8,0.7,1.5,1.3,1.9,1.8c0.4,0.6,0.8,1.2,1,1.8c0.2,0.6,0.3,1.3,0.3,2c0,1.1-0.3,2-0.8,2.9c-0.5,0.9-1.3,1.6-2.3,2.2
			c-1,0.6-2.2,1-3.4,1.2c-1.2,0.2-2.5,0.3-3.8,0.3c-0.9,0-2-0.1-3.3-0.2C255.3,63.4,253.8,63.2,252,62.8z"/>
		<path class="st0" d="M274.3,63.2c0.2-1.8,0.4-3.3,0.5-4.5s0.2-2.7,0.3-4.5s0.2-3.9,0.3-6.1s0.1-4.8,0.2-7.8c1.9,0,3.5,0,4.7,0
			c1.1,0,2.6,0,4.6,0c-0.3,2.8-0.4,5.3-0.6,7.5s-0.2,4.4-0.2,6.8c-0.1,4.3-0.1,7.1-0.1,8.7c-1.8,0-3.3,0-4.6,0
			C278,63.2,276.4,63.2,274.3,63.2z M275.7,37.4c0.1-1.8,0.1-3.2,0.1-4.2c0-0.3,0-0.7,0-1.2c1.8,0,3.3,0,4.6,0c1.7,0,3.2,0,4.4,0
			c0,0.5-0.1,0.9-0.1,1.2l-0.1,2.8c0,0.4,0,0.9,0,1.5c-1.5,0-2.9,0-4.3,0C278.9,37.4,277.4,37.4,275.7,37.4z"/>
		<path class="st0" d="M302.2,39.7c1.9,0,3.6,0.3,5.4,0.9c1.7,0.6,3.2,1.4,4.3,2.5c1.2,1.1,2.1,2.3,2.6,3.8c0.6,1.4,0.8,3,0.8,4.6
			c0,1.6-0.3,3.1-0.8,4.6c-0.5,1.4-1.4,2.8-2.5,4.1c-1.2,1.3-2.7,2.2-4.6,2.8c-1.9,0.6-3.8,0.9-5.9,0.9c-1.9,0-3.7-0.3-5.5-0.8
			s-3.2-1.4-4.4-2.4c-1.2-1.1-2.1-2.3-2.7-3.8c-0.6-1.5-0.9-3-0.9-4.7s0.3-3.2,0.9-4.7c0.6-1.5,1.5-2.8,2.7-4
			c1.2-1.2,2.8-2.1,4.6-2.7C298.3,40,300.2,39.7,302.2,39.7z M302,46.3c-1,0-1.8,0.2-2.6,0.7s-1.3,1.2-1.7,2.2c-0.4,1-0.6,2-0.6,3.1
			c0,1.6,0.4,2.9,1.2,3.8c0.8,0.9,1.9,1.3,3.1,1.3c0.9,0,1.8-0.3,2.5-0.8c0.7-0.5,1.3-1.2,1.7-2.2c0.4-1,0.6-2,0.6-3.2
			c0-0.9-0.1-1.8-0.4-2.5s-0.8-1.3-1.5-1.8C303.7,46.5,302.9,46.3,302,46.3z"/>
		<path class="st0" d="M318.4,63.2c0.4-3.4,0.8-7.2,1-11.3c0.2-4.1,0.4-8,0.4-11.7c1.8,0,3.4,0,4.7,0c1.5,0,3,0,4.4,0l-0.2,3.1
			c0.5-0.6,0.9-1,1.3-1.3c0.4-0.3,0.8-0.6,1.3-0.9c0.5-0.3,1.1-0.6,1.7-0.8s1.3-0.3,2-0.5c0.7-0.1,1.5-0.2,2.2-0.2
			c1.1,0,2.1,0.1,3.2,0.3c1,0.2,1.9,0.6,2.6,1c0.7,0.4,1.3,1,1.7,1.6c0.5,0.6,0.8,1.3,0.9,2.1s0.2,1.5,0.2,2.3
			c0,0.6-0.1,1.8-0.2,3.7l-0.4,8.1c-0.1,1.6-0.1,3.1-0.1,4.4c-1.5,0-2.9,0-4.2,0c-1.8,0-3.4,0-4.9,0c0.1-1.4,0.3-3.4,0.4-6.1
			c0.2-2.7,0.2-4.6,0.2-5.7c0-1.7-0.3-2.9-1-3.5c-0.7-0.7-1.5-1-2.5-1c-0.9,0-1.7,0.3-2.5,0.9c-0.8,0.6-1.4,1.4-1.8,2.5
			c-0.4,1.1-0.7,2.9-0.9,5.4c-0.2,2.5-0.3,5-0.3,7.6c-1.5,0-3,0-4.4,0C321.8,63.2,320.2,63.2,318.4,63.2z"/>
	</g>
	<rect x="322.3" y="78.2" class="st0" width="18.2" height="1.5"/>
	<rect x="98.3" y="78.2" class="st0" width="18.2" height="1.5"/>
	<g>
		<g>
			<path class="st1" d="M129.7,81l1.6-0.2c0.1,0.6,0.3,1.1,0.7,1.4s1,0.5,1.7,0.5c0.7,0,1.3-0.1,1.6-0.4s0.5-0.6,0.5-1
				c0-0.4-0.2-0.6-0.5-0.8c-0.2-0.1-0.8-0.3-1.6-0.5c-1.2-0.3-2-0.5-2.4-0.8s-0.8-0.5-1-0.9c-0.2-0.4-0.3-0.8-0.3-1.3
				c0-0.4,0.1-0.8,0.3-1.2c0.2-0.4,0.4-0.6,0.8-0.9c0.2-0.2,0.6-0.3,1-0.5s0.9-0.2,1.4-0.2c0.7,0,1.4,0.1,1.9,0.3s1,0.5,1.2,0.9
				c0.3,0.4,0.4,0.8,0.5,1.4l-1.5,0.2c-0.1-0.5-0.3-0.9-0.6-1.1s-0.8-0.4-1.4-0.4c-0.7,0-1.2,0.1-1.6,0.4s-0.5,0.5-0.5,0.8
				c0,0.2,0.1,0.4,0.2,0.6c0.1,0.2,0.3,0.3,0.6,0.4c0.2,0.1,0.6,0.2,1.4,0.4c1.1,0.3,1.9,0.5,2.3,0.7s0.8,0.5,1,0.8s0.4,0.8,0.4,1.4
				c0,0.5-0.2,1-0.5,1.5c-0.3,0.5-0.8,0.8-1.3,1.1c-0.6,0.3-1.2,0.4-2,0.4c-1.2,0-2.1-0.3-2.8-0.8S129.9,82,129.7,81z"/>
			<path class="st1" d="M157.2,87.4l-0.2-1.5c0.3,0.1,0.6,0.1,0.9,0.1c0.4,0,0.6-0.1,0.8-0.2s0.4-0.3,0.5-0.5
				c0.1-0.2,0.3-0.6,0.5-1.2c0-0.1,0.1-0.2,0.1-0.4l-3.5-9.4h1.7l1.9,5.4c0.3,0.7,0.5,1.4,0.7,2.2c0.2-0.7,0.4-1.4,0.7-2.1l2-5.4
				h1.6l-3.6,9.5c-0.4,1-0.7,1.7-0.9,2.1c-0.3,0.5-0.6,0.9-1,1.1c-0.4,0.2-0.8,0.4-1.3,0.4C158,87.6,157.6,87.5,157.2,87.4z"/>
			<path class="st1" d="M183.7,81l1.6-0.2c0.1,0.6,0.3,1.1,0.7,1.4s1,0.5,1.7,0.5c0.7,0,1.3-0.1,1.6-0.4s0.5-0.6,0.5-1
				c0-0.4-0.2-0.6-0.5-0.8c-0.2-0.1-0.8-0.3-1.6-0.5c-1.2-0.3-2-0.5-2.4-0.8s-0.8-0.5-1-0.9c-0.2-0.4-0.3-0.8-0.3-1.3
				c0-0.4,0.1-0.8,0.3-1.2c0.2-0.4,0.4-0.6,0.8-0.9c0.2-0.2,0.6-0.3,1-0.5s0.9-0.2,1.4-0.2c0.7,0,1.4,0.1,1.9,0.3s1,0.5,1.2,0.9
				c0.3,0.4,0.4,0.8,0.5,1.4l-1.5,0.2c-0.1-0.5-0.3-0.9-0.6-1.1s-0.8-0.4-1.4-0.4c-0.7,0-1.2,0.1-1.6,0.4s-0.5,0.5-0.5,0.8
				c0,0.2,0.1,0.4,0.2,0.6c0.1,0.2,0.3,0.3,0.6,0.4c0.2,0.1,0.6,0.2,1.4,0.4c1.1,0.3,1.9,0.5,2.3,0.7s0.8,0.5,1,0.8s0.4,0.8,0.4,1.4
				c0,0.5-0.2,1-0.5,1.5c-0.3,0.5-0.8,0.8-1.3,1.1c-0.6,0.3-1.2,0.4-2,0.4c-1.2,0-2.1-0.3-2.8-0.8S183.9,82,183.7,81z"/>
			<path class="st1" d="M214.8,82.4l0.2,1.4c-0.4,0.1-0.8,0.1-1.2,0.1c-0.6,0-1-0.1-1.3-0.3s-0.5-0.4-0.7-0.7s-0.2-0.9-0.2-1.9v-5.4
				h-1.2v-1.2h1.2v-2.3l1.6-0.9v3.3h1.6v1.2h-1.6v5.5c0,0.5,0,0.7,0.1,0.9s0.1,0.2,0.3,0.3s0.3,0.1,0.5,0.1
				C214.3,82.4,214.5,82.4,214.8,82.4z"/>
			<path class="st1" d="M240.7,80.8l1.6,0.2c-0.3,1-0.7,1.7-1.4,2.2s-1.6,0.8-2.7,0.8c-1.4,0-2.4-0.4-3.2-1.3
				c-0.8-0.8-1.2-2-1.2-3.5c0-1.6,0.4-2.8,1.2-3.7s1.9-1.3,3.1-1.3c1.2,0,2.3,0.4,3.1,1.3s1.2,2,1.2,3.6c0,0.1,0,0.2,0,0.4h-7
				c0.1,1,0.3,1.8,0.9,2.4s1.2,0.8,2,0.8c0.6,0,1.1-0.2,1.5-0.5S240.5,81.5,240.7,80.8z M235.5,78.2h5.2c-0.1-0.8-0.3-1.4-0.6-1.8
				c-0.5-0.6-1.2-0.9-2-0.9c-0.7,0-1.3,0.2-1.8,0.7S235.6,77.4,235.5,78.2z"/>
			<path class="st1" d="M262.3,83.8v-9.3h1.4v1.3c0.3-0.5,0.7-0.8,1.2-1.1s1-0.4,1.7-0.4c0.7,0,1.3,0.1,1.7,0.4
				c0.4,0.3,0.8,0.7,0.9,1.2c0.7-1.1,1.7-1.6,2.9-1.6c0.9,0,1.6,0.3,2.1,0.8s0.7,1.3,0.7,2.4v6.4h-1.6v-5.9c0-0.6-0.1-1.1-0.2-1.4
				c-0.1-0.3-0.3-0.5-0.6-0.7s-0.6-0.3-0.9-0.3c-0.7,0-1.2,0.2-1.6,0.7c-0.4,0.4-0.7,1.1-0.7,2.1v5.4h-1.6v-6.1
				c0-0.7-0.1-1.2-0.4-1.6s-0.7-0.5-1.3-0.5c-0.4,0-0.9,0.1-1.2,0.4c-0.4,0.2-0.7,0.6-0.8,1s-0.3,1.1-0.3,2v4.8H262.3z"/>
			<path class="st1" d="M294.7,81l1.6-0.2c0.1,0.6,0.3,1.1,0.7,1.4s1,0.5,1.7,0.5c0.7,0,1.3-0.1,1.6-0.4s0.5-0.6,0.5-1
				c0-0.4-0.2-0.6-0.5-0.8c-0.2-0.1-0.8-0.3-1.6-0.5c-1.2-0.3-2-0.5-2.4-0.8c-0.4-0.2-0.8-0.5-1-0.9c-0.2-0.4-0.3-0.8-0.3-1.3
				c0-0.4,0.1-0.8,0.3-1.2c0.2-0.4,0.4-0.6,0.8-0.9c0.2-0.2,0.6-0.3,1-0.5s0.9-0.2,1.4-0.2c0.7,0,1.4,0.1,1.9,0.3
				c0.6,0.2,1,0.5,1.2,0.9c0.3,0.4,0.4,0.8,0.5,1.4l-1.5,0.2c-0.1-0.5-0.3-0.9-0.6-1.1c-0.3-0.3-0.8-0.4-1.4-0.4
				c-0.7,0-1.2,0.1-1.6,0.4s-0.5,0.5-0.5,0.8c0,0.2,0.1,0.4,0.2,0.6c0.1,0.2,0.3,0.3,0.6,0.4c0.2,0.1,0.6,0.2,1.4,0.4
				c1.1,0.3,1.9,0.5,2.3,0.7c0.4,0.2,0.8,0.5,1,0.8s0.4,0.8,0.4,1.4c0,0.5-0.2,1-0.5,1.5c-0.3,0.5-0.8,0.8-1.3,1.1
				c-0.6,0.3-1.2,0.4-2,0.4c-1.2,0-2.1-0.3-2.8-0.8C295.3,82.8,294.9,82,294.7,81z"/>
		</g>
	</g>
</g>
<g>
</g>
<g>
</g>
<g>
</g>
<g>
</g>
<g>
</g>
<g>
</g>
</svg>
