<?xml version="1.0" encoding="utf-8"?>
<!-- Generator: Adobe Illustrator 25.0.0, SVG Export Plug-In . SVG Version: 6.00 Build 0)  -->
<svg version="1.1" id="Layer_1" xmlns="http://www.w3.org/2000/svg" xmlns:xlink="http://www.w3.org/1999/xlink" x="0px" y="0px"
	 viewBox="0 0 458 116" style="enable-background:new 0 0 458 116;" xml:space="preserve">
<style type="text/css">
	.st0{fill:#1C75BC;}
	.st1{fill:#ED1C24;}
	.st2{fill:#58595B;}
</style>
<g>
	<path class="st0" d="M142.2,60.6c-0.3-4.6-0.6-8.2-1-11c2.4,1.1,4.6,1.8,6.4,2.2c1.9,0.4,3.5,0.6,4.9,0.6c1.9,0,3.4-0.3,4.5-0.8
		c1.1-0.5,1.7-1.4,1.7-2.4c0-0.4-0.1-0.7-0.2-1s-0.3-0.7-0.6-1.1c-0.3-0.4-0.7-0.9-1.3-1.4l-6.1-5.3c-1.4-1.2-2.4-2.1-3-2.6
		c-1.1-1.1-2-2.1-2.7-3.1c-0.6-0.9-1.1-1.9-1.4-2.9c-0.3-1-0.4-2-0.4-3.1c0-1.3,0.2-2.6,0.7-3.8c0.5-1.3,1.2-2.4,2.1-3.5
		c0.9-1.1,2.1-2,3.7-2.8c1.5-0.8,3.2-1.3,4.9-1.6c1.7-0.3,3.5-0.4,5.4-0.4c3.6,0,7.6,0.4,11.8,1.3c0.1,1.5,0.1,2.8,0.2,4.1
		c0.1,1.2,0.3,3.4,0.6,6.5c-2-0.8-3.8-1.3-5.4-1.7c-1.6-0.3-3-0.5-4.2-0.5c-1.7,0-3.1,0.3-4.2,0.9c-1.1,0.6-1.7,1.4-1.7,2.3
		c0,0.4,0.1,0.8,0.3,1.3c0.2,0.4,0.5,0.9,1,1.4c0.5,0.5,1.1,1.1,1.9,1.8c0.8,0.7,2,1.6,3.6,2.9l2.3,1.8c0.7,0.6,1.4,1.2,2.2,2
		c0.8,0.8,1.5,1.6,2.1,2.3c0.6,0.8,1,1.5,1.3,2.1c0.3,0.6,0.5,1.3,0.7,1.9c0.1,0.7,0.2,1.4,0.2,2.1c0,1.9-0.5,3.8-1.4,5.5
		c-0.9,1.7-2.2,3.2-3.9,4.3s-3.6,1.9-5.6,2.4c-2,0.5-4.2,0.7-6.4,0.7C151.9,62.1,147.5,61.6,142.2,60.6z"/>
	<path class="st0" d="M181.7,37.7c0.4-2.1,0.7-3.6,0.8-4.4c0.1-0.8,0.3-2.1,0.5-3.8c6.2-1.4,11.5-2,15.9-2c2.5,0,4.8,0.3,7,0.9
		c2.1,0.6,3.7,1.5,4.9,2.8s1.8,3.1,1.8,5.4c0,1.2-0.2,3.9-0.5,8.1c-0.3,4.2-0.6,9.7-0.7,16.5c-2.1,0-4.2-0.1-6.3-0.1
		c-2,0-4.2,0-6.4,0.1c0.3-2.4,0.6-7.2,1-14.6c-0.8,0.4-1.5,0.7-1.9,0.8c-0.5,0.2-1.3,0.4-2.4,0.8c-1.2,0.3-2.1,0.6-2.7,0.9
		c-0.7,0.2-1.2,0.5-1.7,0.9c-0.5,0.4-0.8,0.7-1,1.1s-0.3,0.8-0.3,1.3c0,0.7,0.3,1.4,0.9,1.9c0.6,0.5,1.5,0.8,2.8,0.8
		c0.5,0,0.9,0,1.4-0.1c0.5-0.1,1.2-0.3,2.1-0.6c-0.6,1.7-1.4,4.1-2.2,7.2c-1.8,0.3-3.6,0.5-5.2,0.5c-2.7,0-4.9-0.4-6.6-1.1
		s-3.1-1.9-4.1-3.6c-1-1.7-1.4-3.3-1.4-5c0-1,0.2-2,0.5-3s0.9-1.9,1.7-2.8c0.8-0.9,1.6-1.7,2.6-2.4c1-0.7,2.4-1.3,4.1-1.9
		s4-1.1,6.6-1.6c1.1-0.2,2.1-0.4,3.1-0.7c0.9-0.2,1.6-0.5,2-0.6c0.4-0.2,0.7-0.4,1-0.6c0.2-0.2,0.4-0.5,0.5-0.8
		c0.1-0.3,0.2-0.6,0.2-0.9c0-0.8-0.3-1.4-1-1.9c-0.7-0.4-1.7-0.7-3-0.7C191.7,34.6,187.1,35.7,181.7,37.7z"/>
	<path class="st0" d="M218.2,61.2c0.6-4.9,1.1-10.2,1.4-16.1c0.3-5.9,0.5-11.5,0.6-16.7c2.6,0,4.8,0.1,6.7,0.1c2.2,0,4.3,0,6.3-0.1
		l-0.3,4.4c0.7-0.8,1.3-1.4,1.8-1.9c0.5-0.5,1.2-0.9,1.9-1.4c0.8-0.4,1.6-0.8,2.4-1.1c0.9-0.3,1.8-0.5,2.8-0.7
		c1-0.2,2.1-0.2,3.2-0.2c1.5,0,3.1,0.2,4.5,0.5c1.5,0.3,2.7,0.8,3.7,1.4c1,0.6,1.8,1.4,2.5,2.3c0.7,0.9,1.1,1.9,1.3,2.9
		c0.2,1.1,0.3,2.1,0.3,3.2c0,0.8-0.1,2.6-0.3,5.3l-0.6,11.6c-0.1,2.3-0.2,4.4-0.2,6.4c-2.2,0-4.2-0.1-6.1-0.1c-2.6,0-4.9,0-7,0.1
		c0.2-2,0.4-4.9,0.6-8.7c0.2-3.9,0.3-6.6,0.3-8.1c0-2.4-0.5-4.1-1.4-5.1c-0.9-1-2.1-1.4-3.5-1.4c-1.2,0-2.4,0.4-3.5,1.2
		c-1.1,0.8-2,2-2.6,3.6c-0.6,1.6-1,4.1-1.3,7.7s-0.4,7.2-0.5,10.9c-2.1,0-4.2-0.1-6.3-0.1C223.1,61.2,220.7,61.2,218.2,61.2z"/>
	<path class="st0" d="M287.3,51.8c-0.4,1.8-0.7,3.6-1,5.3l-0.7,3.9c-2.1,0.5-3.8,0.8-5,0.9c-1.2,0.1-2.3,0.2-3.5,0.2
		c-1.8,0-3.4-0.2-4.9-0.5c-1.4-0.3-2.6-0.9-3.5-1.7c-0.9-0.8-1.6-1.8-1.9-2.8c-0.3-1.1-0.5-2.2-0.5-3.4c0-0.2,0-0.6,0-1.1
		c0-0.5,0.1-1.8,0.2-3.7l0.7-11.1h-5c0.1-1.5,0.2-3.4,0.3-5.9l0.1-3h5.3c0.1-1,0.3-3.1,0.5-6.5l5.5-1.1c1-0.2,3.2-0.7,6.4-1.5
		c-0.2,2.8-0.3,5.8-0.3,9.1h7.3c-0.2,4.5-0.3,7.4-0.3,8.9h-7.4l-0.4,8c0,1.2-0.1,2-0.1,2.3c0,1,0.1,1.9,0.3,2.6
		c0.2,0.7,0.6,1.2,1.2,1.5c0.6,0.3,1.2,0.5,1.9,0.5c0.5,0,1.1,0,1.6-0.1S285.9,52.2,287.3,51.8z"/>
	<path class="st0" d="M291.2,61.2c0.3-3.2,0.6-5.8,0.7-7.9c0.3-4.3,0.6-9.3,0.9-15c0.2-3.8,0.3-7.4,0.4-10.9
		c0.1-3.5,0.1-6.9,0.1-10.1c2.7,0,4.9,0.1,6.7,0.1c2.3,0,4.5,0,6.6-0.1l-0.7,7.8c-0.1,1.3-0.3,3.9-0.5,7.8c0.7-0.9,1.3-1.6,1.7-2
		c0.5-0.4,0.9-0.8,1.5-1.2s1.1-0.7,1.7-0.9c0.6-0.3,1.2-0.5,2-0.7c0.7-0.2,1.6-0.3,2.4-0.5c0.9-0.1,1.8-0.2,2.8-0.2
		c1.8,0,3.6,0.2,5.3,0.6c1.7,0.4,3.2,1.1,4.4,2.1c1.2,1,2,2.2,2.4,3.4c0.4,1.3,0.6,2.6,0.6,4.1c0,0.6,0,1.3,0,2.3s-0.1,2.2-0.2,3.6
		l-0.7,10.8c-0.1,1.4-0.1,2.5-0.1,3.4c0,0.9,0,2,0,3.4c-2.2,0-4.4-0.1-6.4-0.1c-2.3,0-4.6,0-7,0.1c0.4-2.9,0.7-6.1,1-9.9
		c0.3-3.7,0.4-6.5,0.4-8.3c0-2-0.4-3.4-1.3-4.2c-0.8-0.8-2-1.2-3.4-1.2c-1.2,0-2.4,0.3-3.3,0.8c-0.9,0.5-1.6,1.1-2.3,2.1
		c-0.6,0.8-1,1.9-1.4,3.4c-0.4,1.8-0.8,4.5-1,8.1c-0.1,2-0.3,5.1-0.4,9.3c-2.2,0-4.2-0.1-6.1-0.1C296.2,61.2,293.9,61.2,291.2,61.2z
		"/>
	<path class="st0" d="M355.4,27.5c2.7,0,5.2,0.4,7.7,1.2c2.5,0.8,4.5,2,6.2,3.5c1.7,1.5,2.9,3.3,3.7,5.4c0.8,2,1.2,4.3,1.2,6.6
		c0,2.3-0.4,4.5-1.1,6.5c-0.7,2.1-1.9,4-3.7,5.8s-3.9,3.2-6.5,4.1c-2.7,0.9-5.5,1.4-8.4,1.4c-2.7,0-5.3-0.4-7.9-1.2
		c-2.5-0.8-4.6-2-6.3-3.5c-1.7-1.5-3-3.3-3.8-5.5s-1.3-4.4-1.3-6.7c0-2.3,0.4-4.6,1.2-6.7s2.1-4,3.9-5.7c1.8-1.7,4-3,6.6-3.9
		C349.8,28,352.6,27.5,355.4,27.5z M355.2,37c-1.4,0-2.6,0.4-3.7,1.1c-1.1,0.7-1.9,1.7-2.4,3.1c-0.5,1.4-0.8,2.8-0.8,4.5
		c0,2.4,0.6,4.2,1.8,5.4c1.2,1.3,2.7,1.9,4.4,1.9c1.4,0,2.6-0.4,3.6-1.1c1.1-0.7,1.9-1.8,2.4-3.2c0.5-1.4,0.8-2.9,0.8-4.5
		c0-1.3-0.2-2.5-0.6-3.6c-0.4-1.1-1.1-1.9-2.1-2.6C357.7,37.3,356.5,37,355.2,37z"/>
	<path class="st0" d="M378.8,60.6c-0.1-0.9-0.2-1.9-0.3-3c-0.1-1-0.2-2.5-0.4-4.3l-0.3-2.3c2.1,0.8,3.9,1.4,5.4,1.8
		c1.5,0.4,2.9,0.6,4.1,0.6c1,0,1.9-0.1,2.6-0.3c0.7-0.2,1.1-0.5,1.4-0.8c0.3-0.4,0.4-0.7,0.4-1.1c0-0.3-0.1-0.7-0.3-1
		c-0.2-0.3-0.7-0.8-1.5-1.4c-1.8-1.3-3.3-2.5-4.6-3.5s-2.3-2-3-2.8s-1.2-1.7-1.5-2.6c-0.4-0.9-0.5-1.9-0.5-2.9c0-1.8,0.5-3.4,1.5-5
		c1-1.5,2.5-2.7,4.5-3.4s4.4-1,7.3-1c3,0,6.8,0.4,11.4,1.2l0.5,9c-2.6-1-5.1-1.5-7.5-1.5c-1.7,0-2.9,0.2-3.7,0.5
		c-0.8,0.3-1.1,0.9-1.1,1.6c0,0.2,0,0.5,0.1,0.7s0.2,0.4,0.5,0.7c0.2,0.2,0.5,0.5,0.8,0.7c0.3,0.2,1.1,0.8,2.4,1.7
		c1.3,0.9,2.3,1.6,3,2.2c1.2,0.9,2.1,1.8,2.8,2.6s1.1,1.7,1.4,2.6c0.3,0.9,0.5,1.9,0.5,2.9c0,1.5-0.4,2.9-1.1,4.2
		c-0.7,1.3-1.9,2.3-3.3,3.2c-1.5,0.9-3.1,1.5-4.8,1.8c-1.7,0.3-3.5,0.5-5.4,0.5c-1.2,0-2.8-0.1-4.7-0.3
		C383.5,61.5,381.3,61.2,378.8,60.6z"/>
	<path class="st0" d="M410.7,61.2c0.3-3.2,0.6-5.8,0.7-7.9c0.3-4.3,0.6-9.3,0.9-15c0.2-3.8,0.3-7.4,0.4-10.9
		c0.1-3.5,0.1-6.9,0.1-10.1c2.7,0,4.9,0.1,6.7,0.1c2.3,0,4.5,0,6.6-0.1l-0.7,7.8c-0.1,1.3-0.3,3.9-0.5,7.8c0.7-0.9,1.3-1.6,1.7-2
		c0.5-0.4,0.9-0.8,1.5-1.2s1.1-0.7,1.7-0.9c0.6-0.3,1.2-0.5,2-0.7c0.7-0.2,1.6-0.3,2.4-0.5c0.9-0.1,1.8-0.2,2.8-0.2
		c1.8,0,3.6,0.2,5.3,0.6c1.7,0.4,3.2,1.1,4.4,2.1c1.2,1,2,2.2,2.4,3.4c0.4,1.3,0.6,2.6,0.6,4.1c0,0.6,0,1.3,0,2.3s-0.1,2.2-0.2,3.6
		l-0.7,10.8c-0.1,1.4-0.1,2.5-0.1,3.4c0,0.9,0,2,0,3.4c-2.2,0-4.4-0.1-6.4-0.1c-2.3,0-4.6,0-7,0.1c0.4-2.9,0.7-6.1,1-9.9
		c0.3-3.7,0.4-6.5,0.4-8.3c0-2-0.4-3.4-1.3-4.2c-0.8-0.8-2-1.2-3.4-1.2c-1.2,0-2.4,0.3-3.3,0.8c-0.9,0.5-1.6,1.1-2.3,2.1
		c-0.6,0.8-1,1.9-1.4,3.4c-0.4,1.8-0.8,4.5-1,8.1c-0.1,2-0.3,5.1-0.4,9.3c-2.2,0-4.2-0.1-6.1-0.1C415.7,61.2,413.4,61.2,410.7,61.2z
		"/>
</g>
<g>
	<path class="st1" d="M125.9,84.4l-11.2-10.6c1.6-5,2.4-10.4,2.4-15.9c0-7.4-1.5-14.5-4.2-21c-4.1-9.7-10.9-17.9-19.5-23.7
		C89,10.3,84.3,8,79.2,6.4C74.1,4.8,68.7,4,63.2,4c-7.4,0-14.5,1.5-21,4.2c-9.7,4.1-17.9,10.9-23.7,19.5c-2.9,4.3-5.2,9.1-6.8,14.1
		c-1.6,5.1-2.4,10.5-2.4,16c0,7.4,1.5,14.5,4.2,21c4.1,9.7,10.9,17.9,19.5,23.7c4.3,2.9,9.1,5.2,14.1,6.8c5.1,1.6,10.5,2.4,16,2.4
		c7.4,0,14.5-1.5,21-4.2c2.6-1.1,5-2.4,7.4-3.8c2.3-1.2,5-2.9,6.9-5c1.1-0.9,2.2-1.9,3.2-3l0,0c0,0-0.1-0.1-0.1-0.1c0,0,0,0,0,0
		l-0.9-0.9c0,0,0-0.1,0-0.1L63.1,57v25.8l10,10c-3.2,0.9-6.5,1.4-10,1.4c-5,0-9.8-1-14.1-2.8c-6.5-2.7-12-7.3-15.9-13.1
		c-2-2.9-3.5-6.1-4.5-9.5c-1.1-3.4-1.6-7-1.6-10.8c0-5,1-9.8,2.8-14.1c2.7-6.5,7.3-12,13.1-15.9c2.9-2,6.1-3.5,9.5-4.5
		c3.4-1.1,7-1.6,10.8-1.6c5,0,9.8,1,14.1,2.8c6.5,2.7,12,7.3,15.9,13.1c2,2.9,3.5,6.1,4.5,9.5c1.1,3.4,1.6,7,1.6,10.8
		c0,0.5,0,0.9,0,1.3l-0.1-0.1c0,0,0,0.1,0,0.3c-0.2,4.4-1.2,8.6-2.8,12.5c-0.9,2.1-2,4.1-3.2,6l11.2,11.4c0,0,0,0,0,0l1.4,1.4
		c0,0,0,0,0,0l19.1,19.4L125.9,84.4z"/>
	<path class="st1" d="M101.5,95.7L101.5,95.7C101.5,95.7,101.5,95.7,101.5,95.7z"/>
</g>
<rect x="141.2" y="69.5" width="307.4" height="0.6"/>
<g>
	<path class="st2" d="M166,99V81.4h-6.3v-3.6h16.8v3.6h-6.2V99H166z"/>
	<path class="st2" d="M215.4,94.1l4,0.7c-0.5,1.5-1.3,2.6-2.5,3.4c-1.1,0.8-2.5,1.2-4.2,1.2c-2.7,0-4.6-0.9-5.9-2.6
		c-1-1.4-1.5-3.2-1.5-5.3c0-2.5,0.7-4.5,2-6c1.3-1.4,3-2.2,5-2.2c2.3,0,4.1,0.8,5.4,2.3c1.3,1.5,1.9,3.8,1.9,6.9h-10.1
		c0,1.2,0.4,2.1,1,2.8c0.6,0.7,1.4,1,2.3,1c0.6,0,1.2-0.2,1.6-0.5C214.8,95.5,215.2,94.9,215.4,94.1z M215.6,90
		c0-1.2-0.3-2.1-0.9-2.7c-0.6-0.6-1.3-0.9-2.1-0.9c-0.9,0-1.6,0.3-2.2,1s-0.9,1.5-0.8,2.6H215.6z"/>
	<path class="st2" d="M250.9,94.6L255,94c0.2,0.8,0.5,1.4,1.1,1.8c0.5,0.4,1.3,0.6,2.2,0.6c1,0,1.8-0.2,2.4-0.6
		c0.4-0.3,0.5-0.6,0.5-1.1c0-0.3-0.1-0.6-0.3-0.8c-0.2-0.2-0.7-0.4-1.4-0.5c-3.3-0.7-5.3-1.4-6.2-2c-1.2-0.8-1.8-2-1.8-3.5
		c0-1.3,0.5-2.5,1.6-3.4c1-0.9,2.7-1.4,4.9-1.4c2.1,0,3.6,0.3,4.7,1c1,0.7,1.7,1.7,2.1,3l-3.8,0.7c-0.2-0.6-0.5-1.1-0.9-1.4
		c-0.5-0.3-1.1-0.5-1.9-0.5c-1.1,0-1.8,0.1-2.3,0.4c-0.3,0.2-0.5,0.5-0.5,0.8c0,0.3,0.1,0.5,0.4,0.7c0.4,0.3,1.6,0.7,3.8,1.1
		c2.2,0.5,3.7,1.1,4.5,1.8c0.8,0.7,1.3,1.7,1.3,3c0,1.4-0.6,2.6-1.8,3.6c-1.2,1-2.9,1.5-5.2,1.5c-2.1,0-3.7-0.4-4.9-1.3
		C252.1,97.2,251.3,96.1,250.9,94.6z"/>
	<path class="st2" d="M305.2,83.6v3.2h-2.8v6.2c0,1.3,0,2,0.1,2.2c0.1,0.2,0.2,0.4,0.4,0.5c0.2,0.1,0.4,0.2,0.7,0.2
		c0.4,0,0.9-0.1,1.6-0.4l0.3,3.2c-0.9,0.4-2,0.6-3.2,0.6c-0.7,0-1.4-0.1-2-0.4c-0.6-0.2-1-0.6-1.3-1s-0.5-0.9-0.6-1.6
		c-0.1-0.5-0.1-1.4-0.1-2.9v-6.7h-1.9v-3.2h1.9v-3.1l4.1-2.4v5.4H305.2z"/>
	<path class="st2" d="M337.5,81.6v-3.8h4v3.8H337.5z M337.5,99V83.6h4V99H337.5z"/>
	<path class="st2" d="M389,99h-4v-7.8c0-1.7-0.1-2.7-0.3-3.2c-0.2-0.5-0.5-0.9-0.8-1.1c-0.4-0.3-0.9-0.4-1.4-0.4
		c-0.7,0-1.3,0.2-1.9,0.6c-0.6,0.4-0.9,0.9-1.1,1.5c-0.2,0.6-0.3,1.8-0.3,3.5v7h-4V83.6h3.8v2.3c1.3-1.7,3-2.6,5-2.6
		c0.9,0,1.7,0.2,2.4,0.5c0.7,0.3,1.3,0.7,1.7,1.2c0.4,0.5,0.6,1.1,0.8,1.7c0.1,0.6,0.2,1.5,0.2,2.7V99z"/>
	<path class="st2" d="M422.2,100l4.6,0.6c0.1,0.5,0.3,0.9,0.5,1.1c0.4,0.3,1,0.4,1.8,0.4c1.1,0,1.8-0.2,2.4-0.5
		c0.4-0.2,0.6-0.6,0.8-1c0.1-0.3,0.2-1,0.2-1.9v-2.2c-1.2,1.7-2.7,2.5-4.6,2.5c-2.1,0-3.7-0.9-4.9-2.6c-0.9-1.4-1.4-3.1-1.4-5.2
		c0-2.6,0.6-4.5,1.8-5.9c1.2-1.4,2.8-2,4.6-2c1.9,0,3.4,0.8,4.7,2.5v-2.2h3.8v13.8c0,1.8-0.1,3.2-0.4,4.1c-0.3,0.9-0.7,1.6-1.3,2.1
		c-0.5,0.5-1.3,0.9-2.2,1.2c-0.9,0.3-2,0.4-3.4,0.4c-2.6,0-4.4-0.4-5.5-1.3c-1.1-0.9-1.6-2-1.6-3.4
		C422.2,100.4,422.2,100.2,422.2,100z M425.8,91c0,1.6,0.3,2.8,0.9,3.6c0.6,0.8,1.4,1.1,2.3,1.1c1,0,1.8-0.4,2.5-1.2s1-1.9,1-3.5
		c0-1.6-0.3-2.8-1-3.5c-0.7-0.8-1.5-1.2-2.5-1.2c-1,0-1.8,0.4-2.4,1.1S425.8,89.5,425.8,91z"/>
</g>
<g>
</g>
<g>
</g>
<g>
</g>
<g>
</g>
<g>
</g>
<g>
</g>
</svg>
